<svg width="67" height="67" viewBox="0 0 67 67" fill="none" xmlns="http://www.w3.org/2000/svg">
<g filter="url(#filter0_d_20_23)">
<circle cx="33.5" cy="29.5" r="29.5" fill="#25262A"/>
</g>
<path d="M18 14H49V45H18V14ZM46.4597 37.6065C46.2341 36.1926 45.3127 35.0042 42.5813 33.8951C41.6306 33.4491 40.5749 33.1408 40.258 32.4243C40.1409 31.9972 40.1237 31.7664 40.1994 31.5133C40.3941 30.6797 41.3826 30.43 42.1576 30.6608C42.6622 30.8158 43.1272 31.2033 43.4183 31.825C44.753 30.9518 44.753 30.9518 45.6847 30.3714C45.3351 29.8307 45.1612 29.5947 44.9287 29.3622C44.1141 28.4529 43.0291 27.9879 41.2672 28.0275L40.3579 28.1429C39.4847 28.3564 38.6512 28.8232 38.1483 29.4414C36.6758 31.1086 37.1012 34.0139 38.8837 35.2178C40.6455 36.5353 43.2254 36.8246 43.5543 38.0646C43.8643 39.5767 42.4314 40.0607 41.0141 39.8867C39.9687 39.6525 39.3866 39.1307 38.7476 38.1611L36.3847 39.5182C36.6551 40.1364 36.9651 40.4086 37.4301 40.9511C39.6776 43.2175 45.2972 43.1021 46.3047 39.6525C46.3409 39.5371 46.6147 38.7432 46.4012 37.5221L46.4597 37.6065ZM34.8571 28.2479H31.9534C31.9534 30.7503 31.9414 33.2389 31.9414 35.7465C31.9414 37.3378 32.0223 38.7983 31.7623 39.2478C31.3369 40.1382 30.2364 40.0245 29.7387 39.8661C29.2272 39.6146 28.9671 39.265 28.6657 38.7621C28.5848 38.6278 28.5245 38.5107 28.5021 38.5107L26.1461 39.9642C26.5405 40.7788 27.1157 41.4781 27.858 41.9224C28.9619 42.582 30.4448 42.7956 31.9982 42.4477C33.0109 42.1549 33.8841 41.5538 34.337 40.6238C34.9983 39.4234 34.8571 37.9492 34.8519 36.3028C34.8657 33.6488 34.8519 30.9932 34.8519 28.3203L34.8571 28.2479Z" fill="#F9B305"/>
<defs>
<filter id="filter0_d_20_23" x="0" y="0" width="67" height="67" filterUnits="userSpaceOnUse" color-interpolation-filters="sRGB">
<feFlood flood-opacity="0" result="BackgroundImageFix"/>
<feColorMatrix in="SourceAlpha" type="matrix" values="0 0 0 0 0 0 0 0 0 0 0 0 0 0 0 0 0 0 127 0" result="hardAlpha"/>
<feOffset dy="4"/>
<feGaussianBlur stdDeviation="2"/>
<feComposite in2="hardAlpha" operator="out"/>
<feColorMatrix type="matrix" values="0 0 0 0 0 0 0 0 0 0 0 0 0 0 0 0 0 0 0.9 0"/>
<feBlend mode="normal" in2="BackgroundImageFix" result="effect1_dropShadow_20_23"/>
<feBlend mode="normal" in="SourceGraphic" in2="effect1_dropShadow_20_23" result="shape"/>
</filter>
</defs>
</svg>
