<svg width="78" height="78" viewBox="0 0 78 78" fill="none" xmlns="http://www.w3.org/2000/svg">
<g filter="url(#filter0_d_20_20)">
<circle cx="39" cy="35" r="35" fill="#25262A"/>
</g>
<path d="M39 57C38.3471 57 37.74 56.8365 37.173 56.5537L31.3904 53.3616C30.5217 52.9172 30.957 52.7555 31.2185 52.6747C32.3907 52.3111 32.6084 52.2303 33.8264 51.5819C33.9562 51.5011 34.1318 51.5415 34.2616 51.6223L38.6965 54.0889C38.8683 54.1697 39.0878 54.1697 39.2176 54.0889L56.5655 44.7515C56.7374 44.6707 56.8252 44.509 56.8252 44.307V25.6725C56.8252 25.4705 56.7393 25.3088 56.5655 25.228L39.2176 15.9328C39.0439 15.852 38.8263 15.852 38.6965 15.9328L21.3485 25.228C21.1748 25.3088 21.087 25.5109 21.087 25.6725V44.307C21.087 44.4686 21.1748 44.6707 21.3485 44.7515L26.0869 47.2989C28.6527 48.5111 30.2602 47.0969 30.2602 45.6827V27.2906C30.2602 27.0481 30.4778 26.8057 30.7833 26.8057H32.9997C33.2613 26.8057 33.5209 27.0077 33.5209 27.2906V45.6808C33.5209 48.8747 31.6519 50.7334 28.3912 50.7334C27.3908 50.7334 26.6081 50.7334 24.3916 49.7232L19.827 47.2989C19.277 47.0079 18.8176 46.5809 18.4965 46.0621C18.1753 45.5432 18.0039 44.9513 18 44.3474V25.7129C18 24.5007 18.6949 23.3694 19.827 22.7633L37.1749 13.424C37.7397 13.1453 38.3653 13 39 13C39.6347 13 40.2603 13.1453 40.8251 13.424L58.1749 22.7614C59.3051 23.3675 60 24.4989 60 25.7111V44.3456C60 45.5578 59.3051 46.6891 58.1749 47.2971L40.8251 56.6327C40.2491 56.8729 39.6278 56.9967 39 56.9963V57ZM44.3474 44.1858C36.7396 44.1858 35.1742 40.9533 35.1742 38.2039C35.1742 37.9614 35.3918 37.719 35.6954 37.719H37.9557C38.2173 37.719 38.433 37.8806 38.433 38.1231C38.7824 40.2646 39.7827 41.3151 44.3913 41.3151C48.0434 41.3151 49.6088 40.5474 49.6088 38.7291C49.6088 37.6786 49.1735 36.9109 43.4787 36.3856C38.7385 35.9393 35.7832 34.9714 35.7832 31.4542C35.7832 28.1795 38.7385 26.2382 43.6964 26.2382C49.2614 26.2382 52.0009 28.0179 52.3484 31.8987C52.3445 32.0301 52.2985 32.1571 52.2166 32.2624C52.1307 32.3432 52.0009 32.424 51.8692 32.424H49.6088C49.499 32.4214 49.3931 32.3846 49.307 32.3189C49.2209 32.2533 49.1593 32.1626 49.1315 32.0603C48.6085 29.838 47.2606 29.1088 43.6964 29.1088C39.6949 29.1088 39.2176 30.4018 39.2176 31.3716C39.2176 32.5452 39.7827 32.9088 45.174 33.5553C50.5214 34.2018 53.0433 35.1312 53.0433 38.6061C52.9994 42.1655 49.8704 44.1858 44.3474 44.1858Z" fill="#34AE71"/>
<defs>
<filter id="filter0_d_20_20" x="0" y="0" width="78" height="78" filterUnits="userSpaceOnUse" color-interpolation-filters="sRGB">
<feFlood flood-opacity="0" result="BackgroundImageFix"/>
<feColorMatrix in="SourceAlpha" type="matrix" values="0 0 0 0 0 0 0 0 0 0 0 0 0 0 0 0 0 0 127 0" result="hardAlpha"/>
<feOffset dy="4"/>
<feGaussianBlur stdDeviation="2"/>
<feComposite in2="hardAlpha" operator="out"/>
<feColorMatrix type="matrix" values="0 0 0 0 0 0 0 0 0 0 0 0 0 0 0 0 0 0 0.9 0"/>
<feBlend mode="normal" in2="BackgroundImageFix" result="effect1_dropShadow_20_20"/>
<feBlend mode="normal" in="SourceGraphic" in2="effect1_dropShadow_20_20" result="shape"/>
</filter>
</defs>
</svg>
